<svg xmlns="http://www.w3.org/2000/svg" width="128" height="128" aria-label="Logo ES"><title>Logo ES</title><rect width="112" height="112" x="8" y="8" fill="#111827" rx="24"/><rect width="112" height="112" x="8" y="8" fill="none" stroke="#4f46e5" stroke-width="4" rx="24"/><g fill="#fff"><rect width="32" height="8" x="32" y="40" rx="4"/><rect width="28" height="8" x="32" y="60" rx="4"/><rect width="32" height="8" x="32" y="80" rx="4"/><path d="M64 40h24a12 12 0 0 1 0 24H72a8 8 0 0 0 0 16h20a4 4 0 0 1 0 8H68a12 12 0 0 1 0-24h16a8 8 0 0 0 0-16H64a4 4 0 0 1 0-8"/></g></svg>